<svg width="96" height="96" viewBox="0 0 96 96" fill="none" xmlns="http://www.w3.org/2000/svg">
<g clip-path="url(#clip0_634_2)">
<rect width="96" height="96" rx="12" fill="#F0EAD8"/>
<path d="M29.5959 73.9275C24.3959 77.1275 23.5959 86.9275 23.5959 86.9275H22.0958C21.5958 79.4275 23.0958 75.4275 25.5959 71.4275C27.5959 68.2275 31.4292 66.0942 33.5958 64.9275L24.5959 39.4275C24.5959 39.4275 22.0959 32.4277 34.0959 22.9276C46.0959 13.4275 52.0958 16.9275 52.0958 16.9275C56.7625 19.5942 66.5958 25.6275 68.5958 28.4275C71.0958 31.9275 70.5958 40.4275 68.0958 45.4275C65.5958 50.4275 63.5958 54.9275 54.5958 62.4275C45.5958 69.9275 36.0959 69.9275 29.5959 73.9275Z" fill="#372B22"/>
<path d="M23.5106 80.762C23.5036 80.9389 23.5001 81.1174 23.5001 81.2976C23.4884 81.1457 23.4913 80.9659 23.5106 80.762C23.8019 73.4181 30.0701 68.8696 36.5 66.2976C39.9264 64.9271 46.1535 63.6759 51 59.7976C56.4925 55.4024 61 48.2976 63.5 44.2976C63.5 44.2976 62 49.7976 56.5 56.7976C54.1429 59.7976 51.6817 61.7725 48.5 63.7976C44.846 66.1233 40.4405 67.2299 37 68.2976C33.0345 69.5283 30.5297 71.1539 28.5 72.7976C24.9908 75.6394 23.6729 79.0494 23.5106 80.762Z" fill="#F0E0B0"/>
<path d="M65 26.7976L51.5 17.7976C51.5 17.7976 49.5 22.7976 40 30.2976C30.5 37.7976 25.5 37.7976 25.5 37.7976L34 62.2976C34 62.2976 38 46.1309 40 43.2976C40 43.2976 35.3333 46.9643 34 47.7976C34 47.7976 34 36.7976 41 31.2976C48 25.7976 57.5 28.2976 57.5 28.2976C57.5 28.2976 52.6667 32.7976 51 33.7976C51 33.7976 63.3333 28.9643 65 26.7976Z" fill="#F0E0B0"/>
<path d="M32 26.2976C29.7909 28.5067 28.8333 29.4643 28.5 30.2976L32.5 26.2976L37 22.2976C36.5 22.4643 34.5 23.7976 32 26.2976Z" fill="#E8DAB0"/>
<path d="M102.017 0L116.455 21.038L65 55.7976C65 55.7976 74.1765 44.2976 73 34.2976C71.8235 24.2976 67 24.2976 67 24.2976L102.017 0Z" fill="#372B22"/>
<path d="M86.5 37.7976L105.5 24.2976L105 26.2976L81 42.2976L86.5 37.7976Z" fill="#EDDEB1"/>
<path d="M95.5 27.7976L114.5 14.2976L114 16.2976L90 32.2976L95.5 27.7976Z" fill="#EDDEB1"/>
</g>
<defs>
<clipPath id="clip0_634_2">
<rect width="96" height="96" rx="12" fill="white"/>
</clipPath>
</defs>
</svg>
